<svg width="1600" height="1000" viewBox="0 0 1600 1000" xmlns="http://www.w3.org/2000/svg"><defs><linearGradient id="bg" x1="0" x2="1" y1="0" y2="1"><stop offset="0" stop-color="#06171b"/><stop offset=".55" stop-color="#09272c"/><stop offset="1" stop-color="#0f3b34"/></linearGradient><radialGradient id="glow" cx="72%" cy="18%" r="55%"><stop offset="0" stop-color="#49b935" stop-opacity=".45"/><stop offset=".42" stop-color="#49b935" stop-opacity=".09"/><stop offset="1" stop-color="#49b935" stop-opacity="0"/></radialGradient></defs><rect width="1600" height="1000" fill="url(#bg)"/><rect width="1600" height="1000" fill="url(#glow)"/><path d="M0 742 C240 656 400 697 600 616 C790 539 927 409 1164 436 C1325 454 1456 551 1600 521 L1600 1000 L0 1000Z" fill="#031014" opacity=".62"/><path d="M0 785 C230 709 412 740 609 672 C818 599 978 475 1198 512 C1374 542 1472 646 1600 626" fill="none" stroke="#fff" stroke-opacity=".22" stroke-width="2"/><path d="M0 821 C224 748 423 774 630 711 C827 651 1004 544 1216 586 C1396 622 1507 711 1600 690" fill="none" stroke="#49b935" stroke-opacity=".48" stroke-width="3"/><g opacity=".48" stroke="#52d46b" stroke-width="2" fill="none"><path d="M850 520 L1010 430 L1165 486 L1300 335 L1470 412"/><path d="M1010 430 L1045 610 L1210 660 L1165 486"/><path d="M1210 660 L1370 590 L1470 412"/></g><g fill="#77e17c" opacity=".85"><circle cx="850" cy="520" r="7"/><circle cx="1010" cy="430" r="7"/><circle cx="1165" cy="486" r="7"/><circle cx="1300" cy="335" r="7"/><circle cx="1470" cy="412" r="7"/><circle cx="1045" cy="610" r="6"/><circle cx="1210" cy="660" r="6"/><circle cx="1370" cy="590" r="6"/></g><g opacity=".20" fill="#fff"><rect x="930" y="220" width="42" height="390" rx="3"/><rect x="980" y="170" width="55" height="440" rx="4"/><rect x="1044" y="275" width="36" height="335" rx="3"/><rect x="1095" y="120" width="85" height="490" rx="4"/><rect x="1195" y="242" width="62" height="368" rx="4"/><rect x="1275" y="188" width="48" height="422" rx="4"/><rect x="1340" y="70" width="82" height="540" rx="5"/><rect x="1435" y="220" width="70" height="390" rx="4"/></g></svg>